<svg xmlns="http://www.w3.org/2000/svg" width="800" height="400" style="border:1px solid green"><line x1="0" y1="200" x2="800" y2="200" style="stroke:rgb(99,99,99);stroke-width:1"></line><line x1="400" y1="0" x2="400" y2="400" style="stroke:rgb(99,99,99);stroke-width:1"></line><circle cx="400" cy="200" r="5" stroke="black" stroke-width="1" fill="white"></circle><circle cx="577.7777777777778" cy="50" r="5" stroke="black" stroke-width="1" fill="black"></circle><circle cx="88.88888888888891" cy="150" r="5" stroke="black" stroke-width="1" fill="black"></circle><circle cx="311.1111111111111" cy="350" r="5" stroke="black" stroke-width="1" fill="black"></circle><circle cx="488.8888888888889" cy="300" r="5" stroke="black" stroke-width="1" fill="black"></circle><circle cx="400" cy="50" r="5" stroke="black" stroke-width="1" fill="black"></circle><circle cx="577.7777777777778" cy="200" r="5" stroke="black" stroke-width="1" fill="black"></circle><defs><marker id="Triangle" viewBox="0 0 10 10" refX="12" refY="5" markerWidth="6" markerHeight="6" orient="auto"><path d="M 0 0 L 10 5 L 0 10 L 5 5 Z" fill="#000000"></path></marker></defs><line x1="400" y1="200" x2="577.7777777777778" y2="50" style="stroke:#000;stroke-width:2" marker-end="url(#Triangle)"></line><defs><marker id="my_arrow" viewBox="0 0 10 10" refX="12" refY="5" markerWidth="6" markerHeight="6" orient="auto"><path d="M 0 0 L 10 5 L 0 10 L 5 5 Z" fill="#000000"></path></marker></defs><line x1="400" y1="200" x2="88.88888888888891" y2="150" style="stroke:#000;stroke-width:2" marker-end="url(#my_arrow)"></line><line x1="400" y1="200" x2="311.1111111111111" y2="350" style="stroke:#000;stroke-width:2" marker-end="url(#my_arrow)"></line><line x1="400" y1="200" x2="400" y2="50" style="stroke:#000;stroke-width:2" marker-end="url(#my_arrow)"></line><line x1="400" y1="200" x2="488.8888888888889" y2="300" style="stroke:#000;stroke-width:2" marker-end="url(#my_arrow)"></line><line x1="400" y1="200" x2="577.7777777777778" y2="200" style="stroke:#000;stroke-width:2" marker-end="url(#my_arrow)"></line><text x="577.7777777777778" y="50" dx="10" dy="10">4+3i</text><text x="400" y="50" dx="10" dy="10">3i</text><text x="577.7777777777778" y="200" dx="0" dy="20">4</text><text x="311.1111111111111" y="350" dx="10" dy="10">-2-3i</text><text x="488.8888888888889" y="300" dx="10" dy="10">2-2i</text><text x="400" y="200" dx="-10" dy="-10">0</text><text x="88.88888888888891" y="150" dx="-10" dy="-10">-7+i</text><line x1="0" y1="150" x2="800" y2="150" stroke-dasharray="5,5" stroke="black"></line></svg>