<svg xmlns="http://www.w3.org/2000/svg" width="800" height="400" style="border:1px solid green"><defs><marker id="default" viewBox="0 0 10 10" refX="8" refY="5" markerWidth="6" markerHeight="6" orient="auto"><path d="M 0 0 L 10 5 L 0 10 L 5 5 Z" fill="#000000"></path></marker></defs><line x1="0" y1="200" x2="800" y2="200" style="stroke:black;stroke-width:1" stroke-dasharray="0"></line><line x1="400" y1="400" x2="400" y2="0" style="stroke:black;stroke-width:1" stroke-dasharray="0"></line><circle cx="577.7777777777778" cy="200" r="4" stroke="black" fill="white" stroke-width="2"></circle><line x1="400" y1="200" x2="577.7777777777778" y2="200" style="stroke:#000;stroke-width:2" stroke-dasharray="0" marker-end="url(#default)"></line><circle cx="88.88888888888891" cy="150" r="4" stroke="black" fill="white" stroke-width="2"></circle><line x1="400" y1="200" x2="88.88888888888891" y2="150" style="stroke:#000;stroke-width:2" stroke-dasharray="0" marker-end="url(#default)"></line><circle cx="400" cy="50" r="4" stroke="black" fill="white" stroke-width="2"></circle><line x1="400" y1="200" x2="400" y2="50" style="stroke:#000;stroke-width:2" stroke-dasharray="0" marker-end="url(#default)"></line><circle cx="311.1111111111111" cy="350" r="4" stroke="black" fill="white" stroke-width="2"></circle><line x1="400" y1="200" x2="311.1111111111111" y2="350" style="stroke:#000;stroke-width:2" stroke-dasharray="0" marker-end="url(#default)"></line><circle cx="488.8888888888889" cy="300" r="4" stroke="black" fill="white" stroke-width="2"></circle><line x1="400" y1="200" x2="488.8888888888889" y2="300" style="stroke:#000;stroke-width:2" stroke-dasharray="0" marker-end="url(#default)"></line><circle cx="577.7777777777778" cy="50" r="4" stroke="black" fill="white" stroke-width="2"></circle><line x1="400" y1="200" x2="577.7777777777778" y2="50" style="stroke:#000;stroke-width:2" stroke-dasharray="0" marker-end="url(#default)"></line><circle cx="400" cy="200" r="5" stroke="black" fill="white" stroke-width="2"></circle><text x="133.33333333333337" y="250" dx="10" dy="10">The Complex Plane</text><line x1="0" y1="50" x2="800" y2="50" style="stroke:black;stroke-width:1" stroke-dasharray="3"></line><line x1="0" y1="350" x2="800" y2="350" style="stroke:black;stroke-width:1" stroke-dasharray="3"></line><line x1="0" y1="300" x2="800" y2="300" style="stroke:black;stroke-width:1" stroke-dasharray="3"></line><line x1="0" y1="150" x2="800" y2="150" style="stroke:black;stroke-width:1" stroke-dasharray="3"></line><line x1="88.88888888888891" y1="400" x2="88.88888888888891" y2="0" style="stroke:black;stroke-width:1" stroke-dasharray="3"></line><line x1="577.7777777777778" y1="400" x2="577.7777777777778" y2="0" style="stroke:black;stroke-width:1" stroke-dasharray="3"></line><line x1="488.8888888888889" y1="400" x2="488.8888888888889" y2="0" style="stroke:black;stroke-width:1" stroke-dasharray="3"></line></svg>
